# xmcd CD database file
#
# Track frame offsets:
#	150
#	20531
#	34406
#	55312
#	74545
#	90032
#	107168
#	119396
#	131553
#	152928
#	176511
#	190047
#	206014
#	221961
#	242379
#	266962
#	282767
#	299416
#	311147
#
# Disc length: 4300 seconds
#
# Revision: 0
# Processed by: cddbd v1.5.2PL0 Copyright (c) Steve Scherf et al.
# Submitted via: Feurio! 1.68 - http://www.feurio.com
#
DISCID=2510ca13
DTITLE=Johnny Winter - I
DYEAR=2000
DGENRE=Bluesrock
TTITLE0=I'm Yours And I'm Hers
TTITLE1=Roll With Me
TTITLE2=Hurtin' So Bad
TTITLE3=Prodigal Son
TTITLE4=Johnny Guitar
TTITLE5=I'm Good
TTITLE6=Hey You
TTITLE7=Slippin' And Slidin'
TTITLE8=I'll Drown In My Own Tears
TTITLE9=Careful With A Fool
TTITLE10=Can't You Feel It
TTITLE11=Silver Train
TTITLE12=Stone County
TTITLE13=Close To Me
TTITLE14=Rain
TTITLE15=Rock and Roll, Hoochie Koo
TTITLE16=I Love Everybody
TTITLE17=I Hate Everybody
TTITLE18=It'll Be Me
EXTD=
EXTT0=
EXTT1=
EXTT2=
EXTT3=
EXTT4=
EXTT5=
EXTT6=
EXTT7=
EXTT8=
EXTT9=
EXTT10=
EXTT11=
EXTT12=
EXTT13=
EXTT14=
EXTT15=
EXTT16=
EXTT17=
EXTT18=
PLAYORDER=
